ISO-10303-21;
HEADER;
FILE_DESCRIPTION(('ViewDefinition [ReferenceView_V1.2]','RevitIdentifiers [ContentGUID: cb92c415-3868-4cd9-98f4-bfd4ea8fcbf8, VersionGUID: e1adc786-aa49-4b43-b1d9-97e8e8079f46, NumberOfSaves: 2]','CoordinateReference [CoordinateBase: Shared Coordinates, ProjectSite: Default Site]','ExchangeRequirement [Structural]'),'2;1');
FILE_NAME('SANDRA_RIB.ifc','2026-06-23T14:33:24+01:00',(''),(''),'ODA SDAI 25.12','Autodesk - Revit 26.4.0.32 (ENU) - 26.4.10.8','');
FILE_SCHEMA(('IFC4'));
ENDSEC;

DATA;
#1=IFCORGANIZATION($,'Autodesk Revit 2026 (ENU)',$,$,$);
#2=IFCAPPLICATION(#1,'2026','Autodesk Revit 2026 (ENU)','Revit');
#3=IFCPERSON($,'','ole.helle.mork',$,$,$,$,$);
#4=IFCORGANIZATION($,'','',$,$);
#5=IFCPERSONANDORGANIZATION(#3,#4,$);
#6=IFCOWNERHISTORY(#5,#2,$,.NOCHANGE.,$,$,$,1782218003);
#7=IFCSIUNIT(*,.LENGTHUNIT.,.MILLI.,.METRE.);
#8=IFCSIUNIT(*,.AREAUNIT.,$,.SQUARE_METRE.);
#9=IFCSIUNIT(*,.VOLUMEUNIT.,$,.CUBIC_METRE.);
#10=IFCCARTESIANPOINT((0.,0.,0.));
#11=IFCAXIS2PLACEMENT3D(#10,$,$);
#12=IFCDIRECTION((0.,1.));
#13=IFCGEOMETRICREPRESENTATIONCONTEXT($,'Model',3,0.01,#11,#12);
#14=IFCGEOMETRICREPRESENTATIONSUBCONTEXT('Axis','Model',*,*,*,*,#13,$,.GRAPH_VIEW.,$);
#15=IFCGEOMETRICREPRESENTATIONSUBCONTEXT('Body','Model',*,*,*,*,#13,$,.MODEL_VIEW.,$);
#16=IFCGEOMETRICREPRESENTATIONSUBCONTEXT('Box','Model',*,*,*,*,#13,$,.MODEL_VIEW.,$);
#17=IFCGEOMETRICREPRESENTATIONSUBCONTEXT('FootPrint','Model',*,*,*,*,#13,$,.MODEL_VIEW.,$);
#18=IFCGEOMETRICREPRESENTATIONCONTEXT($,'Plan',3,0.01,#11,#12);
#19=IFCGEOMETRICREPRESENTATIONSUBCONTEXT('Annotation','Plan',*,*,*,*,#18,0.01,.PLAN_VIEW.,$);
#20=IFCPROJECT('3BaiGLE6XCsPZqlzGLS3G8',#6,'1350064924',$,$,'SANDRA_RIB','',(#13,#18),#229);
#21=IFCPOSTALADDRESS($,$,$,$,$,$,'','','','');
#22=IFCAXIS2PLACEMENT3D(#10,$,$);
#23=IFCLOCALPLACEMENT(#41,#22);
#24=IFCBUILDING('3BaiGLE6XCsPZqlzGLS3G9',#6,'',$,$,#23,$,'',.ELEMENT.,$,$,#21);
#25=IFCAXIS2PLACEMENT3D(#10,$,$);
#26=IFCLOCALPLACEMENT(#23,#25);
#27=IFCBUILDINGSTOREY('35mLq0UT1CWRebzuXqYBdR',#6,'HAV',$,$,#26,$,'HAV',.ELEMENT.,4.6563286559830885E-010);
#28=IFCCARTESIANPOINT((0.,0.,2500.));
#29=IFCAXIS2PLACEMENT3D(#28,$,$);
#30=IFCLOCALPLACEMENT(#23,#29);
#31=IFCBUILDINGSTOREY('1sll7n8RnBCQHF$U1OHRc_',#6,'OK bunnplate',$,$,#30,$,'OK bunnplate',.ELEMENT.,2500.);
#32=IFCCARTESIANPOINT((0.,0.,10800.));
#33=IFCAXIS2PLACEMENT3D(#32,$,$);
#34=IFCLOCALPLACEMENT(#23,#33);
#35=IFCBUILDINGSTOREY('1sll7n8RnBCQHF$U1OHRcv',#6,'OK arbeidsdekke',$,$,#34,$,'OK arbeidsdekke',.ELEMENT.,10800.);
#36=IFCCARTESIANPOINT((0.,0.,19500.));
#37=IFCAXIS2PLACEMENT3D(#36,$,$);
#38=IFCLOCALPLACEMENT(#23,#37);
#39=IFCBUILDINGSTOREY('35mLq0UT1CWRebzuXqYBcl',#6,'Regulert maks h\X\F8yde',$,$,#38,$,'Regulert maks h\X\F8yde',.ELEMENT.,19500.);
#40=IFCAXIS2PLACEMENT3D(#10,$,$);
#41=IFCLOCALPLACEMENT($,#40);
#42=IFCSITE('3BaiGLE6XCsPZqlzGLS3GA',#6,'Default',$,$,#41,$,$,.ELEMENT.,(42,24,53,508911),(-71,-15,-29,-58837),0.,$,$);
#43=IFCPROPERTYSINGLEVALUE('Reference',$,IFCIDENTIFIER('Project Information'),$);
#44=IFCPROPERTYSET('3PHHiNkrOfVuBetFo7wBLK',#6,'Pset_SiteCommon',$,(#43));
#45=IFCRELDEFINESBYPROPERTIES('02VXacojacsif8ytZKn30X',#6,$,$,(#42),#44);
#46=IFCCARTESIANPOINTLIST2D(((-311.80828963119336,-179.50549357114207),(288.19171036880692,-179.50549357114201),(23.616579262386381,359.01098714228408),(-221.09459352312106,137.71282347257571)));
#47=IFCINDEXEDPOLYCURVE(#46,(IFCLINEINDEX((1,2,3)),IFCARCINDEX((3,4,1))),.F.);
#48=IFCARBITRARYCLOSEDPROFILEDEF(.AREA.,'Origin Column Wedge',#47);
#49=IFCCARTESIANPOINT((288.19171036880692,179.50549357114198,0.));
#50=IFCDIRECTION((0.,0.,1.));
#51=IFCDIRECTION((-0.44095855184409916,-0.89752746785575033,-0.));
#52=IFCAXIS2PLACEMENT3D(#49,#50,#51);
#53=IFCEXTRUDEDAREASOLID(#48,#52,#50,999.99999999999613);
#54=IFCSIUNIT(*,.PLANEANGLEUNIT.,$,.RADIAN.);
#55=IFCDIMENSIONALEXPONENTS(0,0,0,0,0,0,0);
#56=IFCMEASUREWITHUNIT(IFCPLANEANGLEMEASURE(0.017453292519943278),#54);
#57=IFCCONVERSIONBASEDUNIT(#55,.PLANEANGLEUNIT.,'DEGREE',#56);
#58=IFCCARTESIANPOINTLIST2D(((-98.318331879114837,-6.3030661711327491),(-83.351862957747429,-23.654302118432319),(-5.2789670152630679,-22.834059339495404),(15.039917062729009,-46.390567803541131),(-30.132114149223884,-85.354120792050253),(-17.144263153054169,-100.4114645293679),(95.785814876828056,-3.0025820580951104),(68.034430131106078,29.17072663062654),(51.744561857825921,45.380452236465963),(36.258210937234232,53.820520457116018),(18.144156174450909,55.198486512164429),(0.2613304295530699,45.902564292523316),(-9.5200124423127956,34.676719529314234),(-14.572310731690866,21.952241729601443),(-15.208608666532303,8.1515175954355552),(-11.741950474788183,-6.3030661711327403),(-98.318331879114837,-6.3030661711327491)));
#59=IFCINDEXEDPOLYCURVE(#58,$,.F.);
#60=IFCCARTESIANPOINTLIST2D(((12.308097442140452,30.033479867945093),(22.224323907772838,35.483808457399519),(33.456841419162323,34.88901048643713),(43.390350825251474,29.37833098393607),(53.717744019492891,19.129756360890774),(69.622788110505397,0.69039205757404898),(28.215092832881929,-35.026198181892639),(14.567702528312966,-19.204223707914341),(4.6013694732111068,-5.1821838553789679),(0.99822483435163512,8.1224745896477621),(3.5892024280726424,19.538135518458326),(12.308097442140452,30.033479867945093)));
#61=IFCINDEXEDPOLYCURVE(#60,$,.F.);
#62=IFCARBITRARYPROFILEDEFWITHVOIDS(.AREA.,'Origin Column Wedge',#59,(#61));
#63=IFCCARTESIANPOINT((300.68597322044661,78.566093748271328,1000.));
#64=IFCDIRECTION((0.,0.,-1.));
#65=IFCDIRECTION((-0.65315257121149384,0.75722633255838023,-0.));
#66=IFCAXIS2PLACEMENT3D(#63,#64,#65);
#67=IFCEXTRUDEDAREASOLID(#62,#66,#64,49.999999999999979);
#68=IFCCARTESIANPOINTLIST2D(((-74.568245433524709,-29.82729817340984),(-59.654596346819766,-29.82729817340984),(-59.654596346819773,-9.9424327244699704),(59.654596346819758,-9.9424327244699704),(59.654596346819758,-29.82729817340984),(74.568245433524694,-29.82729817340984),(74.568245433524694,29.82729817340984),(59.654596346819758,29.82729817340984),(59.654596346819758,9.9424327244699704),(-59.654596346819766,9.9424327244699704),(-59.654596346819766,29.82729817340984),(-74.568245433524709,29.82729817340984),(-74.568245433524709,-29.82729817340984)));
#69=IFCINDEXEDPOLYCURVE(#68,$,.F.);
#70=IFCARBITRARYCLOSEDPROFILEDEF(.AREA.,'Origin Column Wedge',#69);
#71=IFCCARTESIANPOINT((402.38533588287311,74.568245433524709,1000.));
#72=IFCDIRECTION((0.,1.,0.));
#73=IFCAXIS2PLACEMENT3D(#71,#50,#72);
#74=IFCEXTRUDEDAREASOLID(#70,#73,#50,50.);
#75=IFCCARTESIANPOINTLIST2D(((-36.651434903262697,-29.767415528846215),(-22.28288297718008,-29.767415528846211),(-9.8828747054664507,-25.022474444075776),(0.027824098478157925,-16.041597431277911),(7.7344708683001642,-3.458344350670715),(17.449895204226543,-19.932435998718148),(34.334248420347329,-28.161273966965968),(50.802710699685129,-26.874530188475923),(63.524257292716001,-16.52027748059032),(70.87923746486392,-1.6033623843076423),(75.860671084756817,22.876209890520805),(82.75269801038587,67.476162893761597),(-64.634410020978052,90.251880100659662),(-72.843158097630891,37.131109914355612),(-74.034346950846469,10.98511984182594),(-67.597386906714405,-9.030107165948225),(-55.439518581681178,-22.541248172402423),(-36.651434903262697,-29.767415528846215)));
#76=IFCINDEXEDPOLYCURVE(#75,$,.F.);
#77=IFCCARTESIANPOINTLIST2D(((34.49235626086282,-8.0648213360868706),(23.864856095348092,-4.3593779570211728),(17.406618612142594,3.6927122680262303),(15.205417348071609,14.879278293376768),(16.656718465260827,30.374450279186988),(20.761092503587243,56.93483537233908),(62.52077311247367,50.481715497051297),(58.736682597369274,25.993961610590304),(55.443246021897544,8.8774723871129062),(50.370194098205289,-2.4622085305154546),(43.607891972255601,-7.5674620178747549),(34.49235626086282,-8.0648213360868706)));
#78=IFCINDEXEDPOLYCURVE(#77,$,.F.);
#79=IFCCARTESIANPOINTLIST2D(((-34.459077915439295,-9.9853152448331599),(-46.63617663637887,-5.3723362729471491),(-54.014560023196829,4.3545895587227221),(-56.675525870391823,19.050830777177506),(-54.627833160746107,41.075657120789081),(-50.47600971157199,67.943098689006476),(3.5659298999281162,59.592002379810459),(-1.3569464755212111,27.734893091781249),(-4.7255790822049475,10.767569017034996),(-9.7558858577123697,-0.6769638135852607),(-20.080154632028506,-9.3777895746376352),(-34.459077915439295,-9.9853152448331599)));
#80=IFCINDEXEDPOLYCURVE(#79,$,.F.);
#81=IFCARBITRARYPROFILEDEFWITHVOIDS(.AREA.,'Origin Column Wedge',#76,(#78,#80));
#82=IFCCARTESIANPOINT((543.84796840399076,77.659263695521005,1000.));
#83=IFCDIRECTION((-0.15271726640800418,0.98826992089249932,-0.));
#84=IFCAXIS2PLACEMENT3D(#82,#50,#83);
#85=IFCEXTRUDEDAREASOLID(#81,#84,#50,49.999999999999972);
#86=IFCCOLOURRGB($,0.49803921568627452,0.49803921568627452,0.49803921568627452);
#87=IFCSURFACESTYLERENDERING(#86,0.,$,$,$,$,IFCNORMALISEDRATIOMEASURE(0.5),IFCSPECULAREXPONENT(64.),.NOTDEFINED.);
#88=IFCSURFACESTYLE('Default',.BOTH.,(#87));
#89=IFCSTYLEDITEM(#53,(#88),$);
#90=IFCSTYLEDITEM(#67,(#88),$);
#91=IFCSTYLEDITEM(#74,(#88),$);
#92=IFCSTYLEDITEM(#85,(#88),$);
#93=IFCSHAPEREPRESENTATION(#15,'Body','SweptSolid',(#53,#67,#74,#85));
#94=IFCAXIS2PLACEMENT3D(#10,$,$);
#95=IFCREPRESENTATIONMAP(#94,#93);
#96=IFCBUILDINGELEMENTPROXYTYPE('1sll7n8RnBCQHF$U1OHRcZ',#6,'GEM_Reference-Object_RNO:Origin Column Wedge',$,$,$,(#95),'13534',$,.NOTDEFINED.);
#97=IFCMATERIAL('Default',$,'Unassigned');
#98=IFCCARTESIANTRANSFORMATIONOPERATOR3D($,$,#10,1.,$);
#99=IFCMAPPEDITEM(#95,#98);
#100=IFCSHAPEREPRESENTATION(#15,'Body','MappedRepresentation',(#99));
#101=IFCPRODUCTDEFINITIONSHAPE($,$,(#100));
#102=IFCAXIS2PLACEMENT3D(#10,$,$);
#103=IFCLOCALPLACEMENT(#26,#102);
#104=IFCBUILDINGELEMENTPROXY('1sll7n8RnBCQHF$U1OHRcw',#6,'GEM_Reference-Object_RNO:Origin Column Wedge:13511',$,$,#103,#101,'13511',.NOTDEFINED.);
#105=IFCPROPERTYSINGLEVALUE('Reference',$,IFCIDENTIFIER('Origin Column Wedge'),$);
#106=IFCPROPERTYSINGLEVALUE('IsExternal',$,IFCBOOLEAN(.F.),$);
#107=IFCPROPERTYSET('0uT6kqwtmTd7kF7yMbFVKK',#6,'Pset_BuildingElementProxyCommon',$,(#105,#106));
#108=IFCPROPERTYSET('2x_Iy9yLXwk6m68pI8uVdF',#6,'Pset_EnvironmentalImpactIndicators',$,(#105));
#109=IFCRELDEFINESBYPROPERTIES('228sdVngumK9tgcQFqmt4h',#6,$,$,(#104),#107);
#110=IFCRELDEFINESBYPROPERTIES('3PTtlq06TaQ3AmN4pDyVQ9',#6,$,$,(#104),#108);
#111=IFCQUANTITYAREA('NetSurfaceArea','',$,2.4231788030736778,$);
#112=IFCQUANTITYVOLUME('NetVolume','',$,0.20156602534338156,$);
#113=IFCELEMENTQUANTITY('1InP2kYc_pN4TzMo39n1Yg',#6,'Qto_BuildingElementProxyQuantities',$,$,(#111,#112));
#114=IFCRELDEFINESBYPROPERTIES('2HXl192jwWQyM_tuO5oXnl',#6,$,$,(#104),#113);
#115=IFCAXIS2PLACEMENT3D(#10,$,$);
#116=IFCLOCALPLACEMENT(#30,#115);
#117=IFCSLAB('35mLq0UT1CWRebzuXqYBXk',#6,'Floor:Betongdekke 200:173358',$,$,#116,$,'173358',.FLOOR.);
#118=IFCAXIS2PLACEMENT3D(#10,$,$);
#120=IFCCARTESIANPOINTLIST2D(((-5000.,-5000.),(5000.,-5000.),(5000.,5000.),(-5000.,5000.),(-5000.,-5000.)));
#121=IFCINDEXEDPOLYCURVE(#120,$,.F.);
#122=IFCARBITRARYCLOSEDPROFILEDEF(.AREA.,$,#121);
#123=IFCCARTESIANPOINT((15000.,15000.,-200.));
#124=IFCDIRECTION((0.,-1.,0.));
#125=IFCAXIS2PLACEMENT3D(#123,#50,#124);
#126=IFCEXTRUDEDAREASOLID(#122,#125,#50,200.);
#127=IFCCOLOURRGB($,0.59999999999999998,0.60392156862745094,0.56862745098039214);
#128=IFCSURFACESTYLERENDERING(#127,0.,$,$,$,$,IFCNORMALISEDRATIOMEASURE(0.5),IFCSPECULAREXPONENT(64.),.NOTDEFINED.);
#129=IFCSURFACESTYLE('Concrete, Cast In Place',.BOTH.,(#128));
#130=IFCSTYLEDITEM(#126,(#129),$);
#131=IFCSHAPEREPRESENTATION(#15,'Body','SweptSolid',(#126));
#132=IFCLOCALPLACEMENT(#116,#118);
#133=IFCPRODUCTDEFINITIONSHAPE($,$,(#131));
#134=IFCBUILDINGELEMENTPART('2$9RJ8ALjfq8M1yj1ZwUpO',#6,'Concrete, Cast In Place',$,$,#132,#133,'173358',$);
#135=IFCMATERIAL('Concrete, Cast In Place',$,$);
#136=IFCAXIS2PLACEMENT3D(#10,$,$);
#144=IFCCARTESIANPOINTLIST2D(((-45529.630922769808,-94267.728665328817),(45529.6309227698,-94267.728665328817),(45529.630922769808,94267.728665328817),(-45529.630922769808,94267.728665328817),(-45529.630922769808,-94267.728665328817)));
#145=IFCINDEXEDPOLYCURVE(#144,$,.F.);
#146=IFCCARTESIANPOINTLIST2D(((-18858.224930073789,-70248.237164350925),(-19548.220220222614,-57968.320985821731),(-20197.555234542611,-48803.11693145438),(-21754.369733356572,-35291.142036002093),(-22331.23562554202,-20962.537616930131),(-22361.061820967127,-5104.9437157741932),(-22998.113737034724,15766.090485646188),(-23610.093072628624,39110.140949497465),(-23578.678377807431,57581.981504394018),(-25626.262626642434,75521.611684306408),(-26494.018204048883,78721.314190798541),(20079.055835914631,63052.201387074922),(14406.44518493642,16794.005568904962),(25352.473590857386,-74229.407412908957),(-18858.224930073789,-70248.237164350925)));
#147=IFCINDEXEDPOLYCURVE(#146,$,.F.);
#148=IFCARBITRARYPROFILEDEFWITHVOIDS(.AREA.,'Betongdekke 200',#145,(#147));
#149=IFCCARTESIANPOINT((62439.483443621117,189587.28895526571,-200.));
#150=IFCDIRECTION((-1.,0.,0.));
#151=IFCAXIS2PLACEMENT3D(#149,#50,#150);
#152=IFCEXTRUDEDAREASOLID(#148,#151,#50,200.);
#153=IFCSTYLEDITEM(#152,(#129),$);
#154=IFCSHAPEREPRESENTATION(#15,'Body','SweptSolid',(#152));
#155=IFCLOCALPLACEMENT(#116,#136);
#156=IFCPRODUCTDEFINITIONSHAPE($,$,(#154));
#157=IFCBUILDINGELEMENTPART('16WQ7Os1IDOtF83$GX3oA9',#6,'Concrete, Cast In Place',$,$,#155,#156,'173358',$);
#158=IFCRELAGGREGATES('1PRbEK6PFeBryTM9Y3YF_q',#6,$,$,#117,(#134,#157));
#159=IFCCARTESIANPOINTLIST2D(((81297.708373694899,259835.52611961664),(37087.009852763731,263816.69636817469),(48033.038258684697,172793.28338636077),(42360.427607706486,126535.08756819079),(88933.501647669997,110865.97476446717),(88065.746070263544,114065.67727095931),(86018.161821428541,132005.30745087171),(86049.576516249741,150477.14800576825),(85437.597180655837,173821.19846961953),(84800.545264588247,194692.23267103991),(84770.71906916314,210549.82657219586),(84193.853176977689,224878.43099126781),(82637.038678163721,238390.40588672008),(81987.703663843728,247555.60994108746),(81297.708373694899,259835.52611961664)));
#160=IFCINDEXEDPOLYCURVE(#159,$,.F.);
#161=IFCARBITRARYCLOSEDPROFILEDEF(.AREA.,$,#160);
#162=IFCAXIS2PLACEMENT3D(#10,$,$);
#163=IFCEXTRUDEDAREASOLID(#161,#162,#64,200.);
#164=IFCSHAPEREPRESENTATION(#15,'Body','SweptSolid',(#163));
#165=IFCPRODUCTDEFINITIONSHAPE($,$,(#164));
#166=IFCAXIS2PLACEMENT3D(#10,$,$);
#167=IFCLOCALPLACEMENT(#116,#166);
#168=IFCOPENINGELEMENT('1vy$zoV_oAHook$bTBsWoz',#6,'Floor:Betongdekke 200:3533',$,$,#167,#165,'173689',.OPENING.);
#169=IFCQUANTITYAREA('Area',$,$,5893.4417649830166,$);
#170=IFCELEMENTQUANTITY('09u6dVthB1UUVTdIQcr9PQ',#6,'Qto_OpeningElementBaseQuantities',$,$,(#169));
#171=IFCRELDEFINESBYPROPERTIES('3T9q28oNPmIX2CFaMwFIhy',#6,$,$,(#168),#170);
#172=IFCRELVOIDSELEMENT('3lDdVKe2Q_xJwInRwFW$NB',#6,$,$,#117,#168);
#173=IFCSLABTYPE('1sll7n8RnBCQHF$U1OHO2m',#6,'Floor:Betongdekke 200',$,$,(#202),$,'3533',$,.FLOOR.);
#174=IFCPROPERTYSINGLEVALUE('Reference',$,IFCIDENTIFIER('Betongdekke 200'),$);
#175=IFCPROPERTYSET('3NXhtWhZR8EnpX7hJ7F2vQ',#6,'Pset_EnvironmentalImpactIndicators',$,(#174));
#176=IFCPROPERTYSINGLEVALUE('Reference',$,IFCLABEL('Betongdekke 200'),$);
#177=IFCPROPERTYSET('3EVKjwqW91qzcNUcq5Xze8',#6,'Pset_ReinforcementBarPitchOfSlab',$,(#176));
#178=IFCPROPERTYSINGLEVALUE('PitchAngle',$,IFCPLANEANGLEMEASURE(0.),$);
#179=IFCPROPERTYSINGLEVALUE('LoadBearing',$,IFCBOOLEAN(.T.),$);
#180=IFCPROPERTYSET('3M5sFnYmPh_Fl7t2JD$mzt',#6,'Pset_SlabCommon',$,(#106,#174,#178,#179));
#181=IFCPROPERTYSET('2shzSXjoPj$2pOrJnnfArh',#6,'Pset_EnvironmentalImpactIndicators',$,(#174));
#182=IFCPROPERTYSET('3zcpFBOHkRPD9TmpWjLBKN',#6,'Pset_OpeningElementCommon',$,(#174));
#183=IFCRELDEFINESBYPROPERTIES('1pj0Zsjl5TvizfVomS2nds',#6,$,$,(#117),#175);
#184=IFCRELDEFINESBYPROPERTIES('2ndN0pC5nJOvV$q8dBOcW5',#6,$,$,(#117),#177);
#185=IFCRELDEFINESBYPROPERTIES('3DA7HmuzNtdWx_Wda0yrZM',#6,$,$,(#117),#180);
#186=IFCRELDEFINESBYPROPERTIES('0ZF7SZ9HL5ywuipK0Az9qr',#6,$,$,(#168),#181);
#187=IFCRELDEFINESBYPROPERTIES('15dE$Y6zh2sGOnCeWOC8pt',#6,$,$,(#168),#182);
#188=IFCQUANTITYLENGTH('Perimeter','',$,3216.4172819341047,$);
#189=IFCQUANTITYAREA('GrossArea','',$,11374.457811257902,$);
#190=IFCQUANTITYAREA('NetArea','',$,11374.457811257902,$);
#191=IFCQUANTITYVOLUME('NetVolume','',$,2274.8915622515801,$);
#192=IFCELEMENTQUANTITY('1$ly5SucOS5FfL8OXIcRJo',#6,'Qto_SlabBaseQuantities',$,$,(#188,#189,#190,#191));
#193=IFCRELDEFINESBYPROPERTIES('3RutbXOI6ZC5kIdoso$vOe',#6,$,$,(#117),#192);
#194=IFCSIUNIT(*,.MASSUNIT.,.KILO.,.GRAM.);
#195=IFCDERIVEDUNITELEMENT(#194,1);
#196=IFCSIUNIT(*,.THERMODYNAMICTEMPERATUREUNIT.,$,.KELVIN.);
#197=IFCDERIVEDUNITELEMENT(#196,-1);
#198=IFCSIUNIT(*,.TIMEUNIT.,$,.SECOND.);
#199=IFCDERIVEDUNITELEMENT(#198,-3);
#200=IFCDERIVEDUNIT((#195,#197,#199),.THERMALTRANSMITTANCEUNIT.,$);
#201=IFCPROPERTYSINGLEVALUE('ThermalTransmittance',$,IFCTHERMALTRANSMITTANCEMEASURE(5.2300000000000004),$);
#202=IFCPROPERTYSET('3L6MM7$db$QmaYE1BI03Jk',#6,'Pset_SlabCommon',$,(#201));
#203=IFCPROPERTYSINGLEVALUE('Reference',$,IFCIDENTIFIER('RNO_8mm Head'),$);
#204=IFCPROPERTYSINGLEVALUE('AboveGround',$,IFCLOGICAL(.U.),$);
#205=IFCPROPERTYSET('3TPoe$WoAMfO9OYG_NIu7D',#6,'Pset_BuildingStoreyCommon',$,(#203,#204));
#206=IFCRELDEFINESBYPROPERTIES('2cl5z9p6tYkwbJrrcz7Hh4',#6,$,$,(#27),#205);
#207=IFCRELCONTAINEDINSPATIALSTRUCTURE('35mLq0UT1CWRebzubqYBdR',#6,$,$,(#104),#27);
#208=IFCPROPERTYSET('0a8Z75UETTnAb4rMKKIqI$',#6,'Pset_BuildingStoreyCommon',$,(#203,#204));
#209=IFCRELDEFINESBYPROPERTIES('16QfprWU4yafulDLg8$8b6',#6,$,$,(#31),#208);
#210=IFCRELCONTAINEDINSPATIALSTRUCTURE('1sll7n8RnBCQHF$U5OHRc_',#6,$,$,(#117),#31);
#211=IFCPROPERTYSET('2BV7_1pptGZlUQFOl0FRAK',#6,'Pset_BuildingStoreyCommon',$,(#203,#204));
#212=IFCRELDEFINESBYPROPERTIES('2MRI_f_olLP$R0zBU3nRIm',#6,$,$,(#35),#211);
#213=IFCPROPERTYSET('24UqVQUKGooRCh12GQLqkD',#6,'Pset_BuildingStoreyCommon',$,(#203,#204));
#214=IFCRELDEFINESBYPROPERTIES('190PXiui00zKsXCFL1h16t',#6,$,$,(#39),#213);
#215=IFCRELAGGREGATES('3reJncfNuHCSfLvRVZVIiP',#6,$,$,#20,(#42));
#216=IFCRELAGGREGATES('2TUS73LSOLvnpbNzXvkqBO',#6,$,$,#42,(#24));
#217=IFCRELAGGREGATES('1LCol3h6T11gvkm_NC4CgS',#6,$,$,#24,(#27,#31,#35,#39));
#218=IFCPROPERTYSINGLEVALUE('NumberOfStoreys',$,IFCINTEGER(4),$);
#219=IFCPROPERTYSINGLEVALUE('IsLandmarked',$,IFCLOGICAL(.U.),$);
#220=IFCPROPERTYSET('29dHC_N1diICZ5JHs1hQ1X',#6,'Pset_BuildingCommon',$,(#43,#218,#219));
#221=IFCRELDEFINESBYPROPERTIES('3dV_0yJZtY1FDIOpDL8_sH',#6,$,$,(#24),#220);
#222=IFCRELASSOCIATESMATERIAL('3DjLaOH2$WhkMJToVIJdws',#6,$,$,(#96,#104),#97);
#223=IFCRELASSOCIATESMATERIAL('3dWHjMjdzgQvwX$$jU6Krt',#6,$,$,(#134,#157),#135);
#224=IFCRELDEFINESBYTYPE('09JjCPkznd_jrhoHaqBJOn',#6,$,$,(#104),#96);
#225=IFCRELDEFINESBYTYPE('1rJeF9UoiUm6a7_rEcxEMx',#6,$,$,(#117),#173);
#226=IFCPRESENTATIONLAYERASSIGNMENT('A-GENM',$,(#93,#100),$);
#227=IFCPRESENTATIONLAYERASSIGNMENT('A-FLOR',$,(#131,#154),$);
#228=IFCPRESENTATIONLAYERASSIGNMENT('A-ANNO-NPLT',$,(#164),$);
#229=IFCUNITASSIGNMENT((#7,#8,#9,#57,#200));
ENDSEC;

END-ISO-10303-21;