ISO-10303-21;
HEADER;
FILE_DESCRIPTION(('ViewDefinition [ReferenceView_V1.2]','ExchangeRequirement[BuildingService]'), '2;1');
FILE_NAME('sandRA_RIV.ifc','2026-06-23T14:20:15',('? ?'),('?'),'BSProLib Rel.2025.9.0.14','? ?','-');
FILE_SCHEMA(('IFC4'));
ENDSEC;
DATA;
#1=IFCCARTESIANPOINT((0.,0.,0.));
#2=IFCDIRECTION((1.,0.,0.));
#3=IFCDIRECTION((0.,1.,0.));
#4=IFCDIRECTION((0.,0.,1.));
#5=IFCORGANIZATION($,'-',$,$,$);
#6=IFCAPPLICATION(#5,'2026 UR-2','MagiCAD For Revit 2026 UR-2','MagiCAD For Revit');
#7=IFCUNITASSIGNMENT((#8,#9,#11,#12,#13,#14,#15,#18,#19,#20,#21,#24,#27,#30));
#8=IFCSIUNIT(*,.AREAUNIT.,$,.SQUARE_METRE.);
#9=IFCSIUNIT(*,.VOLUMEUNIT.,.DECI.,.CUBIC_METRE.);
#10=IFCSIUNIT(*,.PLANEANGLEUNIT.,$,.RADIAN.);
#11=IFCSIUNIT(*,.TIMEUNIT.,$,.SECOND.);
#12=IFCSIUNIT(*,.THERMODYNAMICTEMPERATUREUNIT.,$,.DEGREE_CELSIUS.);
#13=IFCSIUNIT(*,.PRESSUREUNIT.,$,.PASCAL.);
#14=IFCSIUNIT(*,.MASSUNIT.,.KILO.,.GRAM.);
#15=IFCSIUNIT(*,.LENGTHUNIT.,.MILLI.,.METRE.);
#16=IFCSIUNIT(*,.VOLUMEUNIT.,$,.CUBIC_METRE.);
#17=IFCSIUNIT(*,.LENGTHUNIT.,$,.METRE.);
#18=IFCSIUNIT(*,.POWERUNIT.,$,.WATT.);
#19=IFCSIUNIT(*,.ELECTRICCURRENTUNIT.,$,.AMPERE.);
#20=IFCSIUNIT(*,.ELECTRICVOLTAGEUNIT.,$,.VOLT.);
#21=IFCDERIVEDUNIT((#22,#23),.VOLUMETRICFLOWRATEUNIT.,$);
#22=IFCDERIVEDUNITELEMENT(#9,1);
#23=IFCDERIVEDUNITELEMENT(#11,-1);
#24=IFCDERIVEDUNIT((#25,#26),.LINEARVELOCITYUNIT.,$);
#25=IFCDERIVEDUNITELEMENT(#17,1);
#26=IFCDERIVEDUNITELEMENT(#11,-1);
#27=IFCDERIVEDUNIT((#28,#29),.MASSDENSITYUNIT.,$);
#28=IFCDERIVEDUNITELEMENT(#14,1);
#29=IFCDERIVEDUNITELEMENT(#16,-1);
#30=IFCCONVERSIONBASEDUNIT(#32,.PLANEANGLEUNIT.,'DEGREE',#31);
#31=IFCMEASUREWITHUNIT(IFCRATIOMEASURE(0.01745),#10);
#32=IFCDIMENSIONALEXPONENTS(0,0,0,0,0,0,0);
#33=IFCAXIS2PLACEMENT3D(#1,#4,#2);
#34=IFCPROJECT('1fvSTFwor3n8qQgZzh0D0C',$,$,$,$,$,$,(#56),#7);
#35=IFCDIRECTION((0.,1.));
#36=IFCPROPERTYSET('0vR6nwm8bCVPMjuhGUOBx6',$,'MagiCAD Pset_Project',$,(#37,#38,#39,#40,#41,#42,#43));
#37=IFCPROPERTYSINGLEVALUE('Project description',$,IFCTEXT(''),$);
#38=IFCPROPERTYSINGLEVALUE('Project long name',$,IFCTEXT(''),$);
#39=IFCPROPERTYSINGLEVALUE('Project name',$,IFCTEXT(''),$);
#40=IFCPROPERTYSINGLEVALUE('Project phase',$,IFCTEXT(''),$);
#41=IFCPROPERTYSINGLEVALUE('Author',$,IFCTEXT(''),$);
#42=IFCPROPERTYSINGLEVALUE('Authorization',$,IFCTEXT(''),$);
#43=IFCPROPERTYSINGLEVALUE('Organization',$,IFCTEXT(''),$);
#44=IFCRELDEFINESBYPROPERTIES('0Q3epa1Cb2pwzNvLR6tY8c',$,'UDP','User Defined Properties',(#34),#36);
#45=IFCSITE('1fvSTFwor3n8qQgZzh0D0E',$,$,$,$,#46,$,$,.ELEMENT.,(42,24,53,508911),(-71,-15,-29,-58837),-0.,$,#488);
#46=IFCLOCALPLACEMENT($,#33);
#47=IFCPROPERTYSET('1zPzfYhaP5BQ7Ln21ZgqnS',$,'MagiCAD Pset_Site',$,(#48,#49,#50,#51,#52,#53,#54));
#48=IFCPROPERTYSINGLEVALUE('Description',$,IFCTEXT(''),$);
#49=IFCPROPERTYSINGLEVALUE('Long name',$,IFCTEXT(''),$);
#50=IFCPROPERTYSINGLEVALUE('Name',$,IFCTEXT(''),$);
#51=IFCPROPERTYSINGLEVALUE('Reference elevation',$,IFCREAL(0.0000),$);
#52=IFCPROPERTYSINGLEVALUE('Reference latitude',$,IFCTEXT('42, 24, 53, 508911'),$);
#53=IFCPROPERTYSINGLEVALUE('Reference longitude',$,IFCTEXT('-71, -15, -29, -58837'),$);
#54=IFCPROPERTYSINGLEVALUE('Land title number',$,IFCTEXT(''),$);
#55=IFCRELDEFINESBYPROPERTIES('0M2xnahIH2wP2uKbOutTRp',$,'UDP','User Defined Properties',(#45),#47);
#56=IFCGEOMETRICREPRESENTATIONCONTEXT($,'Model',3,1.E-05,#33,#35);
#57=IFCBUILDING('1fvSTFwor3n8qQgZzh0D0D',$,'mc-building',$,$,#58,$,$,.ELEMENT.,$,$,#489);
#58=IFCLOCALPLACEMENT(#46,#33);
#59=IFCPROPERTYSET('1XK1r23tT249$AFxfdsnQy',$,'MagiCAD Pset_Building',$,(#60,#61,#62,#63,#64,#65,#66,#67,#68,#69,#70,#71));
#60=IFCPROPERTYSINGLEVALUE('Address line 1',$,IFCTEXT(''),$);
#61=IFCPROPERTYSINGLEVALUE('Address line 2',$,IFCTEXT(''),$);
#62=IFCPROPERTYSINGLEVALUE('Address country',$,IFCTEXT(''),$);
#63=IFCPROPERTYSINGLEVALUE('Address description',$,IFCTEXT(''),$);
#64=IFCPROPERTYSINGLEVALUE('Address internal location',$,IFCTEXT(''),$);
#65=IFCPROPERTYSINGLEVALUE('Address postal box',$,IFCTEXT(''),$);
#66=IFCPROPERTYSINGLEVALUE('Address postal code',$,IFCTEXT(''),$);
#67=IFCPROPERTYSINGLEVALUE('Address region',$,IFCTEXT(''),$);
#68=IFCPROPERTYSINGLEVALUE('Address town',$,IFCTEXT(''),$);
#69=IFCPROPERTYSINGLEVALUE('Building description',$,IFCTEXT(''),$);
#70=IFCPROPERTYSINGLEVALUE('Building long name',$,IFCTEXT(''),$);
#71=IFCPROPERTYSINGLEVALUE('Building name',$,IFCTEXT(''),$);
#72=IFCRELDEFINESBYPROPERTIES('1Egx8drJ577xIMm6lqUAxn',$,'UDP','User Defined Properties',(#57),#59);
#73=IFCBUILDINGSTOREY('0S0mm0v1P6UfBHealbDRAe',$,'Plan 1',$,$,#74,$,'Plan 1',.ELEMENT.,0.);
#74=IFCLOCALPLACEMENT(#58,#33);
#75=IFCPROPERTYSET('2ze7WKPVT7GfxBfzt8g2Ej',$,'MagiCAD Pset_Storey',$,(#76,#77));
#76=IFCPROPERTYSINGLEVALUE('Name',$,IFCTEXT('Plan 1'),$);
#77=IFCPROPERTYSINGLEVALUE('Description',$,IFCTEXT(''),$);
#78=IFCRELDEFINESBYPROPERTIES('0eVpAEXpr1ifYdG0QmD2Vp',$,'UDP','User Defined Properties',(#73),#75);
#79=IFCBUILDINGELEMENTPROXY('0Moe04q$574fgXcZrchWjy',$,'RNO_Nullpunktss\X\F8yle',$,$,#80,#248,'157718',.NOTDEFINED.);
#80=IFCLOCALPLACEMENT(#74,#33);
#81=IFCCOLOURRGB($,0.752941,0.752941,0.752941);
#82=IFCSURFACESTYLERENDERING(#81,0.00,$,$,$,$,$,$,.METAL.);
#83=IFCSURFACESTYLE('Default Surface',.BOTH.,(#82));
#84=IFCCARTESIANPOINTLIST3D(((293.89262,-404.50849,1000.),(353.55338,-353.55338,1000.),(226.99525,-445.50326,1000.),(78.21724,-493.84417,1000.),(154.5085,-475.52824,1000.),(-0.,-500.,1000.),(445.50326,-226.99525,1000.),(493.84417,-78.21724,1000.),(500.,-0.,1000.),(475.52824,-154.5085,1000.),(404.50849,-293.89262,1000.),(-500.,0.,1000.),(-475.52824,-154.5085,1000.),(-78.21724,-493.84417,1000.),(-293.89262,-404.50849,1000.),(-154.5085,-475.52824,1000.),(-226.99525,-445.50326,1000.),(-353.55338,-353.55338,1000.),(-404.50849,-293.89262,1000.),(-445.50326,-226.99525,1000.),(-493.84417,-78.21724,1000.),(475.52824,154.5085,1000.),(-154.5085,475.52824,1000.),(493.84417,78.21724,1000.),(293.89262,404.50849,1000.),(404.50849,293.89262,1000.),(445.50326,226.99525,1000.),(353.55338,353.55338,1000.),(226.99525,445.50326,1000.),(0.,500.,1000.),(78.21724,493.84417,1000.),(154.5085,475.52824,1000.),(-353.55338,353.55338,1000.),(-404.50849,293.89262,1000.),(-445.50326,226.99525,1000.),(-475.52824,154.5085,1000.),(-493.84417,78.21724,1000.),(-293.89262,404.50849,1000.),(-226.99525,445.50326,1000.),(-78.21724,493.84417,1000.),(226.99525,445.50326,0.),(293.89262,404.50849,0.),(0.,500.,0.),(78.21724,493.84417,0.),(154.5085,475.52824,0.),(-154.5085,475.52824,0.),(404.50849,293.89262,0.),(475.52824,154.5085,0.),(445.50326,226.99525,0.),(353.55338,353.55338,0.),(475.52824,-154.5085,0.),(-475.52824,154.5085,0.),(-445.50326,226.99525,0.),(-293.89262,404.50849,0.),(-226.99525,445.50326,0.),(-353.55338,353.55338,0.),(-78.21724,493.84417,0.),(-404.50849,293.89262,0.),(-493.84417,78.21724,0.),(-493.84417,-78.21724,0.),(-500.,0.,0.),(493.84417,78.21724,0.),(500.,-0.,0.),(493.84417,-78.21724,0.),(78.21724,-493.84417,0.),(445.50326,-226.99525,0.),(-475.52824,-154.5085,0.),(404.50849,-293.89262,0.),(226.99525,-445.50326,0.),(353.55338,-353.55338,0.),(293.89262,-404.50849,0.),(154.5085,-475.52824,0.),(-0.,-500.,0.),(-293.89262,-404.50849,0.),(-353.55338,-353.55338,0.),(-404.50849,-293.89262,0.),(-445.50326,-226.99525,0.),(-78.21724,-493.84417,0.),(-154.5085,-475.52824,0.),(-226.99525,-445.50326,0.)));
#85=IFCINDEXEDPOLYGONALFACE((1,2,3));
#86=IFCINDEXEDPOLYGONALFACE((4,5,3));
#87=IFCINDEXEDPOLYGONALFACE((3,6,4));
#88=IFCINDEXEDPOLYGONALFACE((3,2,7));
#89=IFCINDEXEDPOLYGONALFACE((8,9,10));
#90=IFCINDEXEDPOLYGONALFACE((3,7,6));
#91=IFCINDEXEDPOLYGONALFACE((10,6,7));
#92=IFCINDEXEDPOLYGONALFACE((11,7,2));
#93=IFCINDEXEDPOLYGONALFACE((12,13,10));
#94=IFCINDEXEDPOLYGONALFACE((14,10,15));
#95=IFCINDEXEDPOLYGONALFACE((16,15,17));
#96=IFCINDEXEDPOLYGONALFACE((15,16,14));
#97=IFCINDEXEDPOLYGONALFACE((6,10,14));
#98=IFCINDEXEDPOLYGONALFACE((18,15,19));
#99=IFCINDEXEDPOLYGONALFACE((19,13,20));
#100=IFCINDEXEDPOLYGONALFACE((15,13,19));
#101=IFCINDEXEDPOLYGONALFACE((15,10,13));
#102=IFCINDEXEDPOLYGONALFACE((13,12,21));
#103=IFCINDEXEDPOLYGONALFACE((12,10,9));
#104=IFCINDEXEDPOLYGONALFACE((22,23,24));
#105=IFCINDEXEDPOLYGONALFACE((25,22,26));
#106=IFCINDEXEDPOLYGONALFACE((26,22,27));
#107=IFCINDEXEDPOLYGONALFACE((25,26,28));
#108=IFCINDEXEDPOLYGONALFACE((25,29,30));
#109=IFCINDEXEDPOLYGONALFACE((31,30,29));
#110=IFCINDEXEDPOLYGONALFACE((31,29,32));
#111=IFCINDEXEDPOLYGONALFACE((25,30,22));
#112=IFCINDEXEDPOLYGONALFACE((23,22,30));
#113=IFCINDEXEDPOLYGONALFACE((33,34,35));
#114=IFCINDEXEDPOLYGONALFACE((24,36,37));
#115=IFCINDEXEDPOLYGONALFACE((36,23,35));
#116=IFCINDEXEDPOLYGONALFACE((24,37,12));
#117=IFCINDEXEDPOLYGONALFACE((38,35,23));
#118=IFCINDEXEDPOLYGONALFACE((38,33,35));
#119=IFCINDEXEDPOLYGONALFACE((38,23,39));
#120=IFCINDEXEDPOLYGONALFACE((24,23,36));
#121=IFCINDEXEDPOLYGONALFACE((40,23,30));
#122=IFCINDEXEDPOLYGONALFACE((24,12,9));
#123=IFCINDEXEDPOLYGONALFACE((41,42,43));
#124=IFCINDEXEDPOLYGONALFACE((44,45,41));
#125=IFCINDEXEDPOLYGONALFACE((44,41,43));
#126=IFCINDEXEDPOLYGONALFACE((43,42,46));
#127=IFCINDEXEDPOLYGONALFACE((47,48,46));
#128=IFCINDEXEDPOLYGONALFACE((47,49,48));
#129=IFCINDEXEDPOLYGONALFACE((47,46,42));
#130=IFCINDEXEDPOLYGONALFACE((42,50,47));
#131=IFCINDEXEDPOLYGONALFACE((51,52,48));
#132=IFCINDEXEDPOLYGONALFACE((53,54,46));
#133=IFCINDEXEDPOLYGONALFACE((46,54,55));
#134=IFCINDEXEDPOLYGONALFACE((56,54,53));
#135=IFCINDEXEDPOLYGONALFACE((57,43,46));
#136=IFCINDEXEDPOLYGONALFACE((58,56,53));
#137=IFCINDEXEDPOLYGONALFACE((46,52,53));
#138=IFCINDEXEDPOLYGONALFACE((48,52,46));
#139=IFCINDEXEDPOLYGONALFACE((59,52,51));
#140=IFCINDEXEDPOLYGONALFACE((60,61,59));
#141=IFCINDEXEDPOLYGONALFACE((62,51,48));
#142=IFCINDEXEDPOLYGONALFACE((63,64,51));
#143=IFCINDEXEDPOLYGONALFACE((65,51,66));
#144=IFCINDEXEDPOLYGONALFACE((51,67,59));
#145=IFCINDEXEDPOLYGONALFACE((68,69,66));
#146=IFCINDEXEDPOLYGONALFACE((70,71,69));
#147=IFCINDEXEDPOLYGONALFACE((69,72,65));
#148=IFCINDEXEDPOLYGONALFACE((65,66,69));
#149=IFCINDEXEDPOLYGONALFACE((69,68,70));
#150=IFCINDEXEDPOLYGONALFACE((73,51,65));
#151=IFCINDEXEDPOLYGONALFACE((74,75,76));
#152=IFCINDEXEDPOLYGONALFACE((67,74,76));
#153=IFCINDEXEDPOLYGONALFACE((67,76,77));
#154=IFCINDEXEDPOLYGONALFACE((60,59,67));
#155=IFCINDEXEDPOLYGONALFACE((73,78,79));
#156=IFCINDEXEDPOLYGONALFACE((74,79,80));
#157=IFCINDEXEDPOLYGONALFACE((79,74,73));
#158=IFCINDEXEDPOLYGONALFACE((74,67,51));
#159=IFCINDEXEDPOLYGONALFACE((73,74,51));
#160=IFCINDEXEDPOLYGONALFACE((51,62,63));
#161=IFCINDEXEDPOLYGONALFACE((20,67,77));
#162=IFCINDEXEDPOLYGONALFACE((21,61,60));
#163=IFCINDEXEDPOLYGONALFACE((67,13,60));
#164=IFCINDEXEDPOLYGONALFACE((19,77,76));
#165=IFCINDEXEDPOLYGONALFACE((80,79,16));
#166=IFCINDEXEDPOLYGONALFACE((15,75,74));
#167=IFCINDEXEDPOLYGONALFACE((17,74,80));
#168=IFCINDEXEDPOLYGONALFACE((76,75,18));
#169=IFCINDEXEDPOLYGONALFACE((14,79,78));
#170=IFCINDEXEDPOLYGONALFACE((12,61,21));
#171=IFCINDEXEDPOLYGONALFACE((13,21,60));
#172=IFCINDEXEDPOLYGONALFACE((67,20,13));
#173=IFCINDEXEDPOLYGONALFACE((19,20,77));
#174=IFCINDEXEDPOLYGONALFACE((18,19,76));
#175=IFCINDEXEDPOLYGONALFACE((15,18,75));
#176=IFCINDEXEDPOLYGONALFACE((15,74,17));
#177=IFCINDEXEDPOLYGONALFACE((16,17,80));
#178=IFCINDEXEDPOLYGONALFACE((14,16,79));
#179=IFCINDEXEDPOLYGONALFACE((78,6,14));
#180=IFCINDEXEDPOLYGONALFACE((78,73,6));
#181=IFCINDEXEDPOLYGONALFACE((1,69,71));
#182=IFCINDEXEDPOLYGONALFACE((5,65,72));
#183=IFCINDEXEDPOLYGONALFACE((69,3,72));
#184=IFCINDEXEDPOLYGONALFACE((2,71,70));
#185=IFCINDEXEDPOLYGONALFACE((51,64,8));
#186=IFCINDEXEDPOLYGONALFACE((7,68,66));
#187=IFCINDEXEDPOLYGONALFACE((10,66,51));
#188=IFCINDEXEDPOLYGONALFACE((70,68,11));
#189=IFCINDEXEDPOLYGONALFACE((9,64,63));
#190=IFCINDEXEDPOLYGONALFACE((73,4,6));
#191=IFCINDEXEDPOLYGONALFACE((73,65,4));
#192=IFCINDEXEDPOLYGONALFACE((5,4,65));
#193=IFCINDEXEDPOLYGONALFACE((72,3,5));
#194=IFCINDEXEDPOLYGONALFACE((1,3,69));
#195=IFCINDEXEDPOLYGONALFACE((2,1,71));
#196=IFCINDEXEDPOLYGONALFACE((11,2,70));
#197=IFCINDEXEDPOLYGONALFACE((11,68,7));
#198=IFCINDEXEDPOLYGONALFACE((10,7,66));
#199=IFCINDEXEDPOLYGONALFACE((8,10,51));
#200=IFCINDEXEDPOLYGONALFACE((64,9,8));
#201=IFCINDEXEDPOLYGONALFACE((48,49,27));
#202=IFCINDEXEDPOLYGONALFACE((48,24,62));
#203=IFCINDEXEDPOLYGONALFACE((63,62,24));
#204=IFCINDEXEDPOLYGONALFACE((47,26,49));
#205=IFCINDEXEDPOLYGONALFACE((41,45,32));
#206=IFCINDEXEDPOLYGONALFACE((42,25,50));
#207=IFCINDEXEDPOLYGONALFACE((29,42,41));
#208=IFCINDEXEDPOLYGONALFACE((47,50,28));
#209=IFCINDEXEDPOLYGONALFACE((31,45,44));
#210=IFCINDEXEDPOLYGONALFACE((24,48,22));
#211=IFCINDEXEDPOLYGONALFACE((22,48,27));
#212=IFCINDEXEDPOLYGONALFACE((26,27,49));
#213=IFCINDEXEDPOLYGONALFACE((24,9,63));
#214=IFCINDEXEDPOLYGONALFACE((28,26,47));
#215=IFCINDEXEDPOLYGONALFACE((25,28,50));
#216=IFCINDEXEDPOLYGONALFACE((25,42,29));
#217=IFCINDEXEDPOLYGONALFACE((32,29,41));
#218=IFCINDEXEDPOLYGONALFACE((31,32,45));
#219=IFCINDEXEDPOLYGONALFACE((44,30,31));
#220=IFCINDEXEDPOLYGONALFACE((44,43,30));
#221=IFCINDEXEDPOLYGONALFACE((38,55,54));
#222=IFCINDEXEDPOLYGONALFACE((23,57,46));
#223=IFCINDEXEDPOLYGONALFACE((55,39,46));
#224=IFCINDEXEDPOLYGONALFACE((33,54,56));
#225=IFCINDEXEDPOLYGONALFACE((52,59,37));
#226=IFCINDEXEDPOLYGONALFACE((35,58,53));
#227=IFCINDEXEDPOLYGONALFACE((36,53,52));
#228=IFCINDEXEDPOLYGONALFACE((56,58,34));
#229=IFCINDEXEDPOLYGONALFACE((12,59,61));
#230=IFCINDEXEDPOLYGONALFACE((43,40,30));
#231=IFCINDEXEDPOLYGONALFACE((43,57,40));
#232=IFCINDEXEDPOLYGONALFACE((23,40,57));
#233=IFCINDEXEDPOLYGONALFACE((46,39,23));
#234=IFCINDEXEDPOLYGONALFACE((38,39,55));
#235=IFCINDEXEDPOLYGONALFACE((33,38,54));
#236=IFCINDEXEDPOLYGONALFACE((34,33,56));
#237=IFCINDEXEDPOLYGONALFACE((34,58,35));
#238=IFCINDEXEDPOLYGONALFACE((36,35,53));
#239=IFCINDEXEDPOLYGONALFACE((37,36,52));
#240=IFCINDEXEDPOLYGONALFACE((59,12,37));
#241= IFCPOLYGONALFACESET(#84,.F.,(#85,#86,#87,#88,#89,#90,#91,#92,#93,#94,#95,#96,#97,#98,#99,#100,#101,#102,#103,#104,#105,#106,#107,#108,#109,#110,#111,#112,#113,#114,#115,#116,#117,#118,#119,#120,#121,#122,#123,#124,#125,#126,#127,#128,#129,#130,#131,#132,#133,#134,#135,#136,#137,#138,#139,#140,#141,#142,#143,#144,#145,#146,#147,#148,#149,#150,#151,#152,#153,#154,#155,#156,#157,#158,#159,#160,#161,#162,#163,#164,#165,#166,#167,#168,#169,#170,#171,#172,#173,#174,#175,#176,#177,#178,#179,#180,#181,#182,#183,#184,#185,#186,#187,#188,#189,#190,#191,#192,#193,#194,#195,#196,#197,#198,#199,#200,#201,#202,#203,#204,#205,#206,#207,#208,#209,#210,#211,#212,#213,#214,#215,#216,#217,#218,#219,#220,#221,#222,#223,#224,#225,#226,#227,#228,#229,#230,#231,#232,#233,#234,#235,#236,#237,#238,#239,#240),$);
#242=IFCSHAPEREPRESENTATION(#494,'Body','Tessellation',(#241));
#243=IFCMAPPEDITEM(#244,#245);
#244=IFCREPRESENTATIONMAP(#33,#242);
#245=IFCCARTESIANTRANSFORMATIONOPERATOR3D($,$,#1,1.000000,$);
#246=IFCSHAPEREPRESENTATION(#494,'Body','MappedRepresentation',(#243));
#247=IFCSTYLEDITEM(#243,(#83),$);
#248=IFCPRODUCTDEFINITIONSHAPE($,$,(#246));
#249=IFCBUILDINGELEMENTPROXY('25OfgYPdP7W9C09KsTII5e',$,'RIV','Prosjektnullpunkt',$,#250,#487,'2491358',.NOTDEFINED.);
#250=IFCLOCALPLACEMENT(#74,#33);
#251=IFCCARTESIANPOINTLIST3D(((252.54796,-136.94943,1009.99998),(259.50867,-139.83264,1009.99998),(269.59995,-115.47014,1009.99998),(272.48317,-108.50943,1009.99998),(288.06319,-114.9629,1009.99998),(284.6995,-123.56423,1009.99998),(291.0736,-123.34545,1009.99998),(281.93813,-120.86749,1009.99998),(275.61374,-81.26371,1009.99998),(279.69121,-91.10764,1009.99998),(299.60916,-91.20294,1009.99998),(278.00174,-118.95028,1009.99998),(310.12813,-97.32005,1009.99998),(297.02504,-98.28754,1009.99998),(286.88189,-128.69701,1009.99998),(293.79655,-127.96149,1009.99998),(288.95122,-138.50554,1009.99998),(296.47084,-137.46312,1009.99998),(291.41648,-153.04929,1009.99998),(299.50557,-156.39992,1009.99998),(304.87696,-122.99454,1009.99998),(296.41783,-117.26873,1009.99998),(302.23787,-115.98425,1009.99998),(305.33416,-104.54851,1009.99998),(305.73781,-111.89909,1009.99998),(312.80551,-114.52401,1009.99998),(314.01692,-105.15857,1009.99998),(296.47084,-137.46312,1000.),(299.50557,-156.39992,1000.),(291.41648,-153.04929,1000.),(288.95122,-138.50554,1000.),(293.79655,-127.96149,1000.),(304.87696,-122.99454,1000.),(291.0736,-123.34545,1000.),(296.41783,-117.26873,1000.),(312.80551,-114.52401,1000.),(305.73781,-111.89909,1000.),(314.01692,-105.15857,1000.),(302.23787,-115.98425,1000.),(305.33416,-104.54851,1000.),(297.02504,-98.28754,1000.),(310.12813,-97.32005,1000.),(286.88189,-128.69701,1000.),(284.6995,-123.56423,1000.),(281.93813,-120.86749,1000.),(288.06319,-114.9629,1000.),(259.50867,-139.83264,1000.),(252.54796,-136.94943,1000.),(269.59995,-115.47014,1000.),(278.00174,-118.95028,1000.),(272.48317,-108.50943,1000.),(299.60916,-91.20294,1000.),(279.69121,-91.10764,1000.),(275.61374,-81.26371,1000.),(316.06447,-163.25882,1009.99998),(339.13024,-107.57311,1009.99998),(332.16955,-104.68989,1009.99998),(309.10377,-160.3756,1009.99998),(332.16955,-104.68989,1000.),(339.13024,-107.57311,1000.),(316.06447,-163.25882,1000.),(309.10377,-160.3756,1000.),(346.43601,-175.83914,1009.99998),(353.00621,-160.32337,1009.99998),(347.34173,-110.97441,1009.99998),(352.26593,-170.60866,1009.99998),(354.79186,-114.06036,1009.99998),(353.62787,-178.8181,1009.99998),(358.97449,-162.79551,1009.99998),(397.91565,-131.92283,1009.99998),(390.46552,-128.83688,1009.99998),(353.62787,-178.8181,1000.),(358.97449,-162.79551,1000.),(397.91565,-131.92283,1000.),(352.26593,-170.60866,1000.),(390.46552,-128.83688,1000.),(346.43601,-175.83914,1000.),(353.00621,-160.32337,1000.),(347.34173,-110.97441,1000.),(354.79186,-114.06036,1000.),(493.84417,-78.21724,1000.),(-0.,0.,1000.),(475.52824,-154.5085,1000.),(500.,-0.,1000.),(445.50326,-226.99525,1000.),(404.50849,-293.89262,1000.),(353.55338,-353.55338,1000.),(-0.,0.,0.),(404.50849,-293.89262,0.),(353.55338,-353.55338,0.),(445.50326,-226.99525,0.),(475.52824,-154.5085,0.),(493.84417,-78.21724,0.),(500.,-0.,0.),(-0.,0.,0.8),(-30.31089,17.5,0.8),(-33.8074,9.05867,0.8),(-24.74874,24.74874,0.8),(-35.,0.,0.8),(-9.05867,33.8074,0.8),(-17.5,30.31089,0.8),(0.,35.,0.8),(-17.5,30.31089,0.),(-9.05867,33.8074,0.),(-24.74874,24.74874,0.),(-0.,35.,0.),(-30.31089,17.5,0.),(-33.8074,9.05867,0.),(-35.,0.,0.),(30.31089,-17.5,0.8),(33.8074,-9.05867,0.8),(24.74874,-24.74874,0.8),(35.,-0.,0.8),(9.05867,-33.8074,0.8),(17.5,-30.31089,0.8),(-0.,-35.,0.8),(17.5,-30.31089,0.),(9.05867,-33.8074,0.),(24.74874,-24.74874,0.),(-0.,-35.,0.),(30.31089,-17.5,0.),(33.8074,-9.05867,0.),(35.,-0.,0.)));
#252=IFCINDEXEDPOLYGONALFACE((1,3,4));
#253=IFCINDEXEDPOLYGONALFACE((5,6,7));
#254=IFCINDEXEDPOLYGONALFACE((8,6,5));
#255=IFCINDEXEDPOLYGONALFACE((9,4,10));
#256=IFCINDEXEDPOLYGONALFACE((4,9,1));
#257=IFCINDEXEDPOLYGONALFACE((9,10,11));
#258=IFCINDEXEDPOLYGONALFACE((5,12,8));
#259=IFCINDEXEDPOLYGONALFACE((13,11,14));
#260=IFCINDEXEDPOLYGONALFACE((11,10,14));
#261=IFCINDEXEDPOLYGONALFACE((4,12,5));
#262=IFCINDEXEDPOLYGONALFACE((4,3,12));
#263=IFCINDEXEDPOLYGONALFACE((15,7,6));
#264=IFCINDEXEDPOLYGONALFACE((15,16,7));
#265=IFCINDEXEDPOLYGONALFACE((16,17,18));
#266=IFCINDEXEDPOLYGONALFACE((19,20,18));
#267=IFCINDEXEDPOLYGONALFACE((19,18,17));
#268=IFCINDEXEDPOLYGONALFACE((7,21,22));
#269=IFCINDEXEDPOLYGONALFACE((22,21,23));
#270=IFCINDEXEDPOLYGONALFACE((13,14,24));
#271=IFCINDEXEDPOLYGONALFACE((25,26,27));
#272=IFCINDEXEDPOLYGONALFACE((26,25,23));
#273=IFCINDEXEDPOLYGONALFACE((13,24,27));
#274=IFCINDEXEDPOLYGONALFACE((27,24,25));
#275=IFCINDEXEDPOLYGONALFACE((21,26,23));
#276=IFCINDEXEDPOLYGONALFACE((5,7,22));
#277=IFCINDEXEDPOLYGONALFACE((28,29,30));
#278=IFCINDEXEDPOLYGONALFACE((28,31,32));
#279=IFCINDEXEDPOLYGONALFACE((31,28,30));
#280=IFCINDEXEDPOLYGONALFACE((36,37,38));
#281=IFCINDEXEDPOLYGONALFACE((37,36,39));
#282=IFCINDEXEDPOLYGONALFACE((38,37,40));
#283=IFCINDEXEDPOLYGONALFACE((39,36,33));
#284=IFCINDEXEDPOLYGONALFACE((41,42,40));
#285=IFCINDEXEDPOLYGONALFACE((42,38,40));
#286=IFCINDEXEDPOLYGONALFACE((33,35,39));
#287=IFCINDEXEDPOLYGONALFACE((32,31,43));
#288=IFCINDEXEDPOLYGONALFACE((44,45,46));
#289=IFCINDEXEDPOLYGONALFACE((43,44,34));
#290=IFCINDEXEDPOLYGONALFACE((47,48,49));
#291=IFCINDEXEDPOLYGONALFACE((50,49,51));
#292=IFCINDEXEDPOLYGONALFACE((48,51,49));
#293=IFCINDEXEDPOLYGONALFACE((45,50,46));
#294=IFCINDEXEDPOLYGONALFACE((41,52,42));
#295=IFCINDEXEDPOLYGONALFACE((52,41,53));
#296=IFCINDEXEDPOLYGONALFACE((35,34,46));
#297=IFCINDEXEDPOLYGONALFACE((46,34,44));
#298=IFCINDEXEDPOLYGONALFACE((53,54,52));
#299=IFCINDEXEDPOLYGONALFACE((54,53,51));
#300=IFCINDEXEDPOLYGONALFACE((51,48,54));
#301=IFCINDEXEDPOLYGONALFACE((50,51,46));
#302=IFCINDEXEDPOLYGONALFACE((43,34,32));
#303=IFCINDEXEDPOLYGONALFACE((16,32,34));
#304=IFCINDEXEDPOLYGONALFACE((34,7,16));
#305=IFCINDEXEDPOLYGONALFACE((7,34,33));
#306=IFCINDEXEDPOLYGONALFACE((33,21,7));
#307=IFCINDEXEDPOLYGONALFACE((21,33,36));
#308=IFCINDEXEDPOLYGONALFACE((36,26,21));
#309=IFCINDEXEDPOLYGONALFACE((26,36,38));
#310=IFCINDEXEDPOLYGONALFACE((38,27,26));
#311=IFCINDEXEDPOLYGONALFACE((27,38,42));
#312=IFCINDEXEDPOLYGONALFACE((42,13,27));
#313=IFCINDEXEDPOLYGONALFACE((13,42,52));
#314=IFCINDEXEDPOLYGONALFACE((52,11,13));
#315=IFCINDEXEDPOLYGONALFACE((11,52,54));
#316=IFCINDEXEDPOLYGONALFACE((54,9,11));
#317=IFCINDEXEDPOLYGONALFACE((9,54,48));
#318=IFCINDEXEDPOLYGONALFACE((48,1,9));
#319=IFCINDEXEDPOLYGONALFACE((15,43,31));
#320=IFCINDEXEDPOLYGONALFACE((31,17,15));
#321=IFCINDEXEDPOLYGONALFACE((17,31,30));
#322=IFCINDEXEDPOLYGONALFACE((30,19,17));
#323=IFCINDEXEDPOLYGONALFACE((19,30,29));
#324=IFCINDEXEDPOLYGONALFACE((29,20,19));
#325=IFCINDEXEDPOLYGONALFACE((20,29,28));
#326=IFCINDEXEDPOLYGONALFACE((28,18,20));
#327=IFCINDEXEDPOLYGONALFACE((18,28,32));
#328=IFCINDEXEDPOLYGONALFACE((32,16,18));
#329=IFCINDEXEDPOLYGONALFACE((55,56,57));
#330=IFCINDEXEDPOLYGONALFACE((57,58,55));
#331=IFCINDEXEDPOLYGONALFACE((59,60,61));
#332=IFCINDEXEDPOLYGONALFACE((61,62,59));
#333=IFCINDEXEDPOLYGONALFACE((58,62,61));
#334=IFCINDEXEDPOLYGONALFACE((61,55,58));
#335=IFCINDEXEDPOLYGONALFACE((55,61,60));
#336=IFCINDEXEDPOLYGONALFACE((60,56,55));
#337=IFCINDEXEDPOLYGONALFACE((56,60,59));
#338=IFCINDEXEDPOLYGONALFACE((59,57,56));
#339=IFCINDEXEDPOLYGONALFACE((57,59,62));
#340=IFCINDEXEDPOLYGONALFACE((62,58,57));
#341=IFCINDEXEDPOLYGONALFACE((63,64,65));
#342=IFCINDEXEDPOLYGONALFACE((64,63,66));
#343=IFCINDEXEDPOLYGONALFACE((67,65,64));
#344=IFCINDEXEDPOLYGONALFACE((66,68,69));
#345=IFCINDEXEDPOLYGONALFACE((68,66,63));
#346=IFCINDEXEDPOLYGONALFACE((69,70,71));
#347=IFCINDEXEDPOLYGONALFACE((70,69,68));
#348=IFCINDEXEDPOLYGONALFACE((72,73,74));
#349=IFCINDEXEDPOLYGONALFACE((73,72,75));
#350=IFCINDEXEDPOLYGONALFACE((76,74,73));
#351=IFCINDEXEDPOLYGONALFACE((75,77,78));
#352=IFCINDEXEDPOLYGONALFACE((77,75,72));
#353=IFCINDEXEDPOLYGONALFACE((78,79,80));
#354=IFCINDEXEDPOLYGONALFACE((79,78,77));
#355=IFCINDEXEDPOLYGONALFACE((1,48,47));
#356=IFCINDEXEDPOLYGONALFACE((47,2,1));
#357=IFCINDEXEDPOLYGONALFACE((2,47,49));
#358=IFCINDEXEDPOLYGONALFACE((49,3,2));
#359=IFCINDEXEDPOLYGONALFACE((3,49,50));
#360=IFCINDEXEDPOLYGONALFACE((50,12,3));
#361=IFCINDEXEDPOLYGONALFACE((12,50,45));
#362=IFCINDEXEDPOLYGONALFACE((45,8,12));
#363=IFCINDEXEDPOLYGONALFACE((8,45,44));
#364=IFCINDEXEDPOLYGONALFACE((44,6,8));
#365=IFCINDEXEDPOLYGONALFACE((6,44,43));
#366=IFCINDEXEDPOLYGONALFACE((43,15,6));
#367=IFCINDEXEDPOLYGONALFACE((4,51,53));
#368=IFCINDEXEDPOLYGONALFACE((53,10,4));
#369=IFCINDEXEDPOLYGONALFACE((10,53,41));
#370=IFCINDEXEDPOLYGONALFACE((41,14,10));
#371=IFCINDEXEDPOLYGONALFACE((14,41,40));
#372=IFCINDEXEDPOLYGONALFACE((40,24,14));
#373=IFCINDEXEDPOLYGONALFACE((24,40,37));
#374=IFCINDEXEDPOLYGONALFACE((37,25,24));
#375=IFCINDEXEDPOLYGONALFACE((25,37,39));
#376=IFCINDEXEDPOLYGONALFACE((39,23,25));
#377=IFCINDEXEDPOLYGONALFACE((23,39,35));
#378=IFCINDEXEDPOLYGONALFACE((35,22,23));
#379=IFCINDEXEDPOLYGONALFACE((22,35,46));
#380=IFCINDEXEDPOLYGONALFACE((46,5,22));
#381=IFCINDEXEDPOLYGONALFACE((5,46,51));
#382=IFCINDEXEDPOLYGONALFACE((51,4,5));
#383=IFCINDEXEDPOLYGONALFACE((63,77,72));
#384=IFCINDEXEDPOLYGONALFACE((72,68,63));
#385=IFCINDEXEDPOLYGONALFACE((68,72,74));
#386=IFCINDEXEDPOLYGONALFACE((74,70,68));
#387=IFCINDEXEDPOLYGONALFACE((70,74,76));
#388=IFCINDEXEDPOLYGONALFACE((76,71,70));
#389=IFCINDEXEDPOLYGONALFACE((71,76,73));
#390=IFCINDEXEDPOLYGONALFACE((73,69,71));
#391=IFCINDEXEDPOLYGONALFACE((69,73,75));
#392=IFCINDEXEDPOLYGONALFACE((75,66,69));
#393=IFCINDEXEDPOLYGONALFACE((66,75,78));
#394=IFCINDEXEDPOLYGONALFACE((78,64,66));
#395=IFCINDEXEDPOLYGONALFACE((64,78,80));
#396=IFCINDEXEDPOLYGONALFACE((80,67,64));
#397=IFCINDEXEDPOLYGONALFACE((67,80,79));
#398=IFCINDEXEDPOLYGONALFACE((79,65,67));
#399=IFCINDEXEDPOLYGONALFACE((65,79,77));
#400=IFCINDEXEDPOLYGONALFACE((77,63,65));
#401=IFCINDEXEDPOLYGONALFACE((81,82,83));
#402=IFCINDEXEDPOLYGONALFACE((82,81,84));
#403=IFCINDEXEDPOLYGONALFACE((85,82,86));
#404=IFCINDEXEDPOLYGONALFACE((82,85,83));
#405=IFCINDEXEDPOLYGONALFACE((87,86,82));
#406=IFCINDEXEDPOLYGONALFACE((88,89,90));
#407=IFCINDEXEDPOLYGONALFACE((89,88,91));
#408=IFCINDEXEDPOLYGONALFACE((92,88,93));
#409=IFCINDEXEDPOLYGONALFACE((91,88,92));
#410=IFCINDEXEDPOLYGONALFACE((93,88,94));
#411=IFCINDEXEDPOLYGONALFACE((84,94,88));
#412=IFCINDEXEDPOLYGONALFACE((88,82,84));
#413=IFCINDEXEDPOLYGONALFACE((82,88,90));
#414=IFCINDEXEDPOLYGONALFACE((90,87,82));
#415=IFCINDEXEDPOLYGONALFACE((89,91,85));
#416=IFCINDEXEDPOLYGONALFACE((90,89,87));
#417=IFCINDEXEDPOLYGONALFACE((86,87,89));
#418=IFCINDEXEDPOLYGONALFACE((85,86,89));
#419=IFCINDEXEDPOLYGONALFACE((91,83,85));
#420=IFCINDEXEDPOLYGONALFACE((81,92,93));
#421=IFCINDEXEDPOLYGONALFACE((84,93,94));
#422=IFCINDEXEDPOLYGONALFACE((92,81,83));
#423=IFCINDEXEDPOLYGONALFACE((81,93,84));
#424=IFCINDEXEDPOLYGONALFACE((92,83,91));
#425=IFCINDEXEDPOLYGONALFACE((95,96,97));
#426=IFCINDEXEDPOLYGONALFACE((96,95,98));
#427=IFCINDEXEDPOLYGONALFACE((97,99,95));
#428=IFCINDEXEDPOLYGONALFACE((100,101,95));
#429=IFCINDEXEDPOLYGONALFACE((98,95,101));
#430=IFCINDEXEDPOLYGONALFACE((95,102,100));
#431=IFCINDEXEDPOLYGONALFACE((103,104,88));
#432=IFCINDEXEDPOLYGONALFACE((88,105,103));
#433=IFCINDEXEDPOLYGONALFACE((88,104,106));
#434=IFCINDEXEDPOLYGONALFACE((107,88,108));
#435=IFCINDEXEDPOLYGONALFACE((88,107,105));
#436=IFCINDEXEDPOLYGONALFACE((109,108,88));
#437=IFCINDEXEDPOLYGONALFACE((95,88,106));
#438=IFCINDEXEDPOLYGONALFACE((106,102,95));
#439=IFCINDEXEDPOLYGONALFACE((100,106,104));
#440=IFCINDEXEDPOLYGONALFACE((101,104,103));
#441=IFCINDEXEDPOLYGONALFACE((102,106,100));
#442=IFCINDEXEDPOLYGONALFACE((101,100,104));
#443=IFCINDEXEDPOLYGONALFACE((98,101,103));
#444=IFCINDEXEDPOLYGONALFACE((103,105,98));
#445=IFCINDEXEDPOLYGONALFACE((96,105,107));
#446=IFCINDEXEDPOLYGONALFACE((97,107,108));
#447=IFCINDEXEDPOLYGONALFACE((96,107,97));
#448=IFCINDEXEDPOLYGONALFACE((99,97,108));
#449=IFCINDEXEDPOLYGONALFACE((109,99,108));
#450=IFCINDEXEDPOLYGONALFACE((105,96,98));
#451=IFCINDEXEDPOLYGONALFACE((99,109,88));
#452=IFCINDEXEDPOLYGONALFACE((88,95,99));
#453=IFCINDEXEDPOLYGONALFACE((95,110,111));
#454=IFCINDEXEDPOLYGONALFACE((110,95,112));
#455=IFCINDEXEDPOLYGONALFACE((111,113,95));
#456=IFCINDEXEDPOLYGONALFACE((114,115,95));
#457=IFCINDEXEDPOLYGONALFACE((112,95,115));
#458=IFCINDEXEDPOLYGONALFACE((95,116,114));
#459=IFCINDEXEDPOLYGONALFACE((117,118,88));
#460=IFCINDEXEDPOLYGONALFACE((88,119,117));
#461=IFCINDEXEDPOLYGONALFACE((88,118,120));
#462=IFCINDEXEDPOLYGONALFACE((121,88,122));
#463=IFCINDEXEDPOLYGONALFACE((88,121,119));
#464=IFCINDEXEDPOLYGONALFACE((123,122,88));
#465=IFCINDEXEDPOLYGONALFACE((95,88,120));
#466=IFCINDEXEDPOLYGONALFACE((120,116,95));
#467=IFCINDEXEDPOLYGONALFACE((114,120,118));
#468=IFCINDEXEDPOLYGONALFACE((115,118,117));
#469=IFCINDEXEDPOLYGONALFACE((116,120,114));
#470=IFCINDEXEDPOLYGONALFACE((115,114,118));
#471=IFCINDEXEDPOLYGONALFACE((112,115,117));
#472=IFCINDEXEDPOLYGONALFACE((117,119,112));
#473=IFCINDEXEDPOLYGONALFACE((110,119,121));
#474=IFCINDEXEDPOLYGONALFACE((111,121,122));
#475=IFCINDEXEDPOLYGONALFACE((110,121,111));
#476=IFCINDEXEDPOLYGONALFACE((113,111,122));
#477=IFCINDEXEDPOLYGONALFACE((123,113,122));
#478=IFCINDEXEDPOLYGONALFACE((119,110,112));
#479=IFCINDEXEDPOLYGONALFACE((113,123,88));
#480=IFCINDEXEDPOLYGONALFACE((88,95,113));
#481= IFCPOLYGONALFACESET(#251,.F.,(#85,#252,#253,#254,#255,#256,#257,#258,#259,#260,#261,#262,#263,#264,#95,#265,#266,#267,#268,#269,#270,#271,#272,#273,#274,#275,#276,#277,#278,#279,#113,#280,#281,#282,#283,#284,#285,#286,#287,#288,#289,#290,#291,#292,#293,#294,#295,#296,#297,#298,#299,#300,#301,#302,#303,#304,#305,#306,#307,#308,#309,#310,#311,#312,#313,#314,#315,#316,#317,#318,#319,#320,#321,#322,#323,#324,#325,#326,#327,#328,#329,#330,#331,#332,#333,#334,#335,#336,#337,#338,#339,#340,#341,#342,#343,#344,#345,#346,#347,#348,#349,#350,#351,#352,#353,#354,#355,#356,#357,#358,#359,#360,#361,#362,#363,#364,#365,#366,#367,#368,#369,#370,#371,#372,#373,#374,#375,#376,#377,#378,#379,#380,#381,#382,#383,#384,#385,#386,#387,#388,#389,#390,#391,#392,#393,#394,#395,#396,#397,#398,#399,#400,#401,#402,#403,#404,#405,#406,#407,#408,#409,#410,#411,#412,#413,#414,#415,#416,#417,#418,#419,#420,#421,#422,#423,#424,#425,#426,#427,#428,#429,#430,#431,#432,#433,#434,#435,#436,#437,#438,#439,#440,#441,#442,#443,#444,#445,#446,#447,#448,#449,#450,#451,#452,#453,#454,#455,#456,#457,#458,#459,#460,#461,#462,#463,#464,#465,#466,#467,#468,#469,#470,#471,#472,#473,#474,#475,#476,#477,#478,#479,#480),$);
#482=IFCSHAPEREPRESENTATION(#494,'Body','Tessellation',(#481));
#483=IFCMAPPEDITEM(#484,#245);
#484=IFCREPRESENTATIONMAP(#33,#482);
#485=IFCSHAPEREPRESENTATION(#494,'Body','MappedRepresentation',(#483));
#486=IFCSTYLEDITEM(#483,(#83),$);
#487=IFCPRODUCTDEFINITIONSHAPE($,$,(#485));
#488=IFCPOSTALADDRESS($,$,$,$,('',''),$,$,$,$,$);
#489=IFCPOSTALADDRESS($,$,$,$,('',''),$,$,$,$,$);
#490=IFCRELAGGREGATES('1i5o4g6Y9A5hmLtLOsvCU_',$,'ProjectContainer','ProjectContainer for Sites',#34,(#45));
#491=IFCRELAGGREGATES('2aaRmYMsvBCfapL7ADoNSc',$,'SiteContainer','SiteContainer for Buildings',#45,(#57));
#492=IFCRELAGGREGATES('2RtJE_8ZjD9htLlR0p8jdl',$,'BuildingContainer','BuildingContainer for Buildingstoreys',#57,(#73));
#493=IFCRELCONTAINEDINSPATIALSTRUCTURE('2gmoiZeD52OPoxacz_z4JR',$,'BuildingStoreyContainer','BuildingStoreyContainer for Building Elements',(#79,#249),#73);
#494=IFCGEOMETRICREPRESENTATIONSUBCONTEXT('Body','Model',*,*,*,*,#56,$,.MODEL_VIEW.,$);
ENDSEC;
END-ISO-10303-21;
